<svg width="110" height="110" viewBox="0 0 110 110" fill="none" xmlns="http://www.w3.org/2000/svg">
<g clip-path="url(#clip0_258_46)">
<path d="M85.9123 11.5577C90.7656 20.4418 88.9357 34.0058 92.4364 44.397C95.8575 54.7088 104.689 61.8478 106.598 69.9386C108.428 77.9501 103.416 86.9928 96.5736 94.0524C89.7313 101.033 81.1386 106.03 72.0685 107.775C63.0781 109.52 53.6898 108.013 42.9489 106.823C32.2081 105.633 20.1147 104.761 14.5453 98.3358C8.89643 91.8314 9.77161 79.7745 7.54388 67.7969C5.23658 55.8986 -0.173625 44.0004 3.72491 36.7821C7.62344 29.4845 20.8307 26.8669 31.4124 20.6004C41.9942 14.2547 49.8708 4.33947 59.6569 1.48388C69.3634 -1.45102 81.059 2.67371 85.9123 11.5577Z" fill="#6366f1"/>
</g>
<path fill-rule="evenodd" clip-rule="evenodd" d="M66.7857 31.1562C66.7857 27.7167 65.544 24.4181 63.3338 21.986C61.1235 19.5538 58.1258 18.1875 55 18.1875C51.8742 18.1875 48.8765 19.5538 46.6662 21.986C44.456 24.4181 43.2143 27.7167 43.2143 31.1562V33.75H66.7857V31.1562ZM71.5 31.1562V33.75H88V85.625C88 88.3766 87.0066 91.0155 85.2384 92.9612C83.4702 94.9069 81.072 96 78.5714 96H31.4286C28.928 96 26.5298 94.9069 24.7616 92.9612C22.9934 91.0155 22 88.3766 22 85.625V33.75H38.5V31.1562C38.5 26.3409 40.2384 21.7228 43.3327 18.3178C46.4271 14.9129 50.6239 13 55 13C59.3761 13 63.5729 14.9129 66.6673 18.3178C69.7616 21.7228 71.5 26.3409 71.5 31.1562V31.1562ZM68.4546 58.9301C68.8972 58.4431 69.1458 57.7825 69.1458 57.0938C69.1458 56.405 68.8972 55.7444 68.4546 55.2574C68.012 54.7703 67.4117 54.4967 66.7857 54.4967C66.1598 54.4967 65.5595 54.7703 65.1169 55.2574L52.6429 68.9887L47.2403 63.0386C47.0211 62.7975 46.761 62.6062 46.4746 62.4757C46.1883 62.3451 45.8814 62.278 45.5714 62.278C45.2615 62.278 44.9546 62.3451 44.6682 62.4757C44.3819 62.6062 44.1217 62.7975 43.9026 63.0386C43.6834 63.2798 43.5096 63.5661 43.391 63.8812C43.2724 64.1962 43.2113 64.534 43.2113 64.875C43.2113 65.216 43.2724 65.5538 43.391 65.8688C43.5096 66.1839 43.6834 66.4702 43.9026 66.7114L50.974 74.4926C51.193 74.7342 51.4531 74.9258 51.7394 75.0566C52.0258 75.1873 52.3328 75.2546 52.6429 75.2546C52.9529 75.2546 53.2599 75.1873 53.5463 75.0566C53.8326 74.9258 54.0928 74.7342 54.3117 74.4926L68.4546 58.9301V58.9301Z" fill="white" fill-opacity="0.9"/>
<defs>
<clipPath id="clip0_258_46">
<rect width="105" height="109" fill="white" transform="translate(2)"/>
</clipPath>
</defs>
</svg>
