<svg width="110" height="110" viewBox="0 0 110 110" fill="none" xmlns="http://www.w3.org/2000/svg">
    <g clip-path="url(#clip0_258_5)">
        <path d="M94.3326 8.40027C103.915 15.8803 109.738 28.3469 107.379 38.6869C105.021 49.1003 94.5537 57.4603 88.8779 69.8536C83.2022 82.2469 82.4651 98.8203 74.7254 105.64C66.9857 112.534 52.2435 109.674 39.1966 104.247C26.0761 98.7469 14.5771 90.6069 7.86941 79.4603C1.1617 68.3136 -0.754792 54.3069 3.66788 43.3803C8.01683 32.4536 18.7787 24.6803 28.8771 17.3469C38.9755 10.0136 48.5579 3.04694 59.9832 0.773604C71.4084 -1.49973 84.7501 0.920271 94.3326 8.40027Z" fill="#6366f1" />
    </g>
    <path d="M10 30.1682V21.0841C10 18.6749 10.9482 16.3643 12.636 14.6607C14.3239 12.9571 16.6131 12 19 12H82C84.3869 12 86.6761 12.9571 88.364 14.6607C90.0518 16.3643 91 18.6749 91 21.0841V30.1682M10 30.1682V75.5888C10 77.998 10.9482 80.3086 12.636 82.0122C14.3239 83.7158 16.6131 84.6729 19 84.6729H37M10 30.1682H91M91 30.1682V39.2523" stroke="white" stroke-opacity="0.9" stroke-width="5" stroke-linecap="round" stroke-linejoin="round" />
    <path fill-rule="evenodd" clip-rule="evenodd" d="M77.5 48.3365V52.8785H86.5C87.6935 52.8785 88.8381 53.3571 89.682 54.2089C90.5259 55.0607 91 56.216 91 57.4206V66.5047H95.5C96.6935 66.5047 97.8381 66.9832 98.682 67.835C99.5259 68.6868 100 69.8421 100 71.0468C100 76.4368 98.4165 81.7057 95.4497 86.1874C92.4829 90.669 88.2661 94.162 83.3325 96.2246C78.3989 98.2873 72.9701 98.827 67.7326 97.7755C62.4951 96.7239 57.6841 94.1284 53.9081 90.3171C50.1321 86.5058 47.5606 81.6499 46.5188 76.3634C45.477 71.077 46.0117 65.5975 48.0553 60.6178C50.0988 55.638 53.5595 51.3818 57.9996 48.3873C62.4397 45.3928 67.6599 43.7944 73 43.7944C74.1935 43.7944 75.3381 44.273 76.182 45.1248C77.0259 45.9766 77.5 47.1319 77.5 48.3365ZM59.5 66.5047C59.5 65.3001 59.9741 64.1448 60.818 63.293C61.6619 62.4412 62.8065 61.9627 64 61.9627H64.0045C65.198 61.9627 66.3426 62.4412 67.1865 63.293C68.0304 64.1448 68.5045 65.3001 68.5045 66.5047C68.5045 67.7093 68.0304 68.8646 67.1865 69.7164C66.3426 70.5682 65.198 71.0468 64.0045 71.0468H64C62.8065 71.0468 61.6619 70.5682 60.818 69.7164C59.9741 68.8646 59.5 67.7093 59.5 66.5047ZM77.5 75.5888C76.3065 75.5888 75.1619 76.0674 74.318 76.9192C73.4741 77.771 73 78.9263 73 80.1309C73 81.3355 73.4741 82.4908 74.318 83.3426C75.1619 84.1944 76.3065 84.6729 77.5 84.6729H77.5045C78.698 84.6729 79.8426 84.1944 80.6865 83.3426C81.5304 82.4908 82.0045 81.3355 82.0045 80.1309C82.0045 78.9263 81.5304 77.771 80.6865 76.9192C79.8426 76.0674 78.698 75.5888 77.5045 75.5888H77.5Z" fill="white" fill-opacity="0.9" />
    <path d="M10 21.0841C10 18.6749 10.9482 16.3643 12.636 14.6607C14.3239 12.9571 16.6131 12 19 12H82C84.3869 12 86.6761 12.9571 88.364 14.6607C90.0518 16.3643 91 18.6749 91 21.0841V30.1682H10V21.0841Z" fill="white" fill-opacity="0.9" />
    <defs>
        <clipPath id="clip0_258_5">
            <rect width="107" height="110" fill="white" transform="translate(1)" />
        </clipPath>
    </defs>
</svg>