<svg width="110" height="110" viewBox="0 0 110 110" fill="none" xmlns="http://www.w3.org/2000/svg">
<g clip-path="url(#clip0_258_44)">
<path d="M86.8232 12.1947C92.9037 18.0222 93.4425 30.5208 96.5982 40.8725C99.7539 51.1474 105.603 59.2753 107.374 68.8601C109.221 78.445 106.912 89.41 99.7539 94.2407C92.5189 99.1482 80.4349 97.768 70.2751 98.6114C60.1923 99.4549 52.0337 102.445 44.029 101.679C36.0244 100.912 28.0197 96.3877 21.8623 89.9467C15.7048 83.5057 11.2407 75.2244 7.0844 65.1029C2.92813 55.058 -0.997234 43.1728 2.00452 33.588C5.00627 24.0032 15.0121 16.642 25.4028 12.8081C35.7935 8.89749 46.569 8.43742 57.8063 7.82399C69.0436 7.13389 80.7428 6.29042 86.8232 12.1947Z" fill="#6366f1"/>
<path d="M84.325 17H37.675C34 17 31 20 31 23.675V70.325C31 74 34 77 37.675 77H84.325C88 77 91 74.0375 91 70.325V23.675C91 20 88 17 84.325 17ZM49.975 65.75H42.25V58.025L64.975 35.3L72.7 43.025L49.975 65.75ZM78.625 37.0625L74.875 40.8125L67.1875 33.125L70.9375 29.375C71.725 28.55 73.0375 28.55 73.825 29.375L78.625 34.175C79.45 34.9625 79.45 36.275 78.625 37.0625ZM23.5 32H16V84.5C16 86.4891 16.7902 88.3968 18.1967 89.8033C19.6032 91.2098 21.5109 92 23.5 92H76V84.5H23.5V32Z" fill="white" fill-opacity="0.9"/>
</g>
<defs>
<clipPath id="clip0_258_44">
<rect width="110" height="110" fill="white"/>
</clipPath>
</defs>
</svg>
