<svg width="110" height="110" viewBox="0 0 110 110" fill="none" xmlns="http://www.w3.org/2000/svg">
<g clip-path="url(#clip0_258_42)">
<g clip-path="url(#clip1_258_42)">
<path d="M18.5392 96.7581C8.56508 89.0716 3.28465 75.2026 2.11122 61.6677C1.02161 48.1329 4.12282 34.9322 10.3252 22.9013C16.6115 10.9538 25.9989 0.259659 36.0568 0.593857C46.1148 0.928047 56.9271 12.2906 70.5892 16.8022C84.2512 21.3139 100.763 18.891 107.468 24.9064C114.257 30.9219 111.156 45.2922 107.468 58.3258C103.697 71.3593 99.2544 83.0561 90.8727 90.9932C82.4073 98.9303 70.0863 103.108 56.5918 104.528C43.0974 105.865 28.5134 104.445 18.5392 96.7581Z" fill="#6366f1"/>
</g>
<path d="M54.7691 13L22 30.9223V40.2464H89.8686V30.8728L54.7691 13ZM85.344 35.1069H26.5246V34.1519L54.8372 18.667L85.344 34.2013V35.1069ZM22 90.3572H89.8686V73.6536H22V90.3572ZM26.5246 78.7932H85.344V85.2176H26.5246V78.7932ZM29.918 44.1011H34.4426V69.7989H29.918V44.1011ZM77.426 44.1011H81.9506V69.7989H77.426V44.1011ZM45.754 44.1011H50.2786V69.7989H45.754V44.1011ZM61.59 44.1011H66.1146V69.7989H61.59V44.1011Z" fill="white" fill-opacity="0.9"/>
</g>
<defs>
<clipPath id="clip0_258_42">
<rect width="110" height="110" fill="white"/>
</clipPath>
<clipPath id="clip1_258_42">
<rect width="111" height="105" fill="white" transform="translate(111 105) rotate(-180)"/>
</clipPath>
</defs>
</svg>
