<svg xmlns="http://www.w3.org/2000/svg" xmlns:xlink="http://www.w3.org/1999/xlink" data-name="Layer 1" width="798.62718" height="689.22258" style=""><rect id="backgroundrect" width="100%" height="100%" x="0" y="0" fill="none" stroke="none"/><title>dev_productivity</title><g class="currentLayer" style=""><title>Layer 1</title><circle cx="435.9215393066406" cy="118.40512084960938" r="73.53607177734375" fill="#a0616a" id="svg_1"/><path d="M381.03588337402346,155.17315997802734 s13.8546,104.44259 -7.46016,116.16564 s126.8231,12.78888 126.8231,12.78888 S467.3608833740234,193.53978997802733 482.28120337402345,165.83049997802732 z" fill="#a0616a" id="svg_2"/><path d="M608.5702433740234,284.6560099780273 l-12.32,56.1 l-26.05,118.69 l-0.78,6.5 l-8.99,75.25 l-5.98,49.99 l-4.01,33.58 c-24.38,12.53 -42.05,21.18 -42.05,21.18 s-1.52,-7.62 -3.9699999999999998,-17.37 c-17.11,5.13 -48.77,13.64 -75.6,15.34 c9.77,10.89 14.26,21.12 8.17,28.67 c-18.38,22.76 -94.26,-24.92 -120.8,-42.7 a71.84076,71.84076 0 0 0 -0.7000000000000001,12.86 l-20.31,-15.620000000000001 l2.01,-35.94 l3.39,-60.81 l4.26,-76.26 a80.06413,80.06413 0 0 1 -3.37,-10.03 c-6.22,-22.12 -13.77,-66.29 -19.56,-103.33 c-4.66,-29.81 -8.16,-55 -8.9,-60.36 c-0.1,-0.7000000000000001 -0.15000000000000002,-1.06 -0.15000000000000002,-1.06 l112.43,-49.68 c7.99,18.53 45.30005,24.1 45.30005,24.1 c30.91,-2.13 55.14,-18.43 55.14,-18.43 z" fill="#d0cde1" id="svg_3" class=""/><path d="M516.9202233740234,624.6360499780274 s-4.76,1.6300000000000001 -12.5,3.94 c-17.11,5.13 -48.77,13.64 -75.6,15.34 c-23.1,1.48 -42.62,-2.08 -46.19,-17.15 c-1.53,-6.48 0.6400000000000001,-11.81 5.37,-16.19 c14.12,-13.09 51,-17.78 80.25,-19.39 c8.26,-0.45 15.9,-0.6600000000000001 22.26,-0.7400000000000001 c10.8,-0.14 17.88,0.08000000000000002 17.88,0.08000000000000002 l0.17,0.6600000000000001 z" fill="#a0616a" id="svg_4"/><path d="M374.7463333740235,48.84677997802734 L360.99688337402347,43.34228997802734 s28.74878,-31.65079 68.74742,-28.89843 l-11.24986,-12.38521 s27.49889,-11.00886 52.49786,17.88956 c13.14149,15.191230000000001 28.34631,33.04782 37.82491,53.163 h14.72472 l-6.1455400000000004,13.53179 l21.50942,13.5318 l-22.07731,-2.43059 a75.61673,75.61673 0 0 1 0.5991000000000001,22.445 A29.04072,29.04072 0 0 1 506.79318337402344,139.18708997802733 h0 s-17.05183,-35.29562 -17.05183,-40.80013 V112.14818997802735 s-13.74944,-12.38505 -13.74944,-20.64172 L468.4922833740235,101.13928997802734 l-3.74981,-15.13741 l-46.248,15.13741 l7.49962,-12.385 l-28.74878,4.12833 l11.24986,-15.13741 s-32.49859,17.88956 -33.74881,33.027 c-1.24979,15.1372 -10.762270000000001,29.48068 -10.762270000000001,29.48068 S338.49784337402343,69.48848997802733 374.7463333740235,48.84677997802734 z" fill="#2f2e41" id="svg_5"/><path d="M688.5002333740234,542.5660399780273 c-7.49,8.12 -26.05,20.35 -48.55,33.59 c-8.37,4.92 -17.28,9.99 -26.37,15.03 c-21.69,12.03 -44.4,23.95 -63.14,33.58 c-24.38,12.53 -42.05,21.18 -42.05,21.18 s-1.52,-7.62 -3.9699999999999998,-17.37 c-3.2800000000000002,-13.05 -8.22,-29.92 -13.37,-37.39 c-0.18000000000000002,-0.26 -0.36000000000000004,-0.5 -0.54,-0.7400000000000001 c-1.5,-1.97 -3.01,-3.12 -4.5,-3.12 l74.42,-46.13 l32.16,-19.94 l-23.17,-55.31 l-29.06,-69.38 l17.54,-55.81 l17.63,-56.1 h33.04 s10.94,23.88 24.93,57.18005 c2.09,4.98 4.25,10.17 6.45,15.53 C668.7302233740235,427.3660299780273 704.6102233740235,525.1160299780273 688.5002333740234,542.5660399780273 z" fill="#d0cde1" id="svg_6" class=""/><path d="M436.99022337402346,672.5860599780274 c-18.38,22.76 -94.26,-24.92 -120.8,-42.7 c-5.78,-3.87 -9.22,-6.32 -9.22,-6.32 l24.28,-32.38 l7.69,-10.25 s6.88,3.6500000000000004 17.05,9.59 c0.37000000000000005,0.22000000000000003 0.7400000000000001,0.44000000000000006 1.12,0.6600000000000001 c8.77,5.15 19.78,11.88 30.89,19.39 c15.33,10.37 30.83,22.2 40.82,33.34 C438.5902633740235,654.8060299780274 443.0802533740234,665.0360099780273 436.99022337402346,672.5860599780274 z" fill="#a0616a" id="svg_7"/><path d="M355.99022337402346,590.5260599780273 a47.78152,47.78152 0 0 0 -8.1,0.6600000000000001 c-22.99,3.95 -29.77,24.76 -31.7,38.7 a71.84076,71.84076 0 0 0 -0.7000000000000001,12.86 l-20.31,-15.620000000000001 l-7.4,-5.69 c-17.81,-6.21 -33.68,-17.24 -47.44,-30.25 a238.48245,238.48245 0 0 1 -31.95,-37.89 a334.15026,334.15026 0 0 1 -24.72,-42.4 a31.18368,31.18368 0 0 1 -0.43000000000000005,-26.45 l25.15,-56.05 l36.76,-81.92 q0.40494,-2.92492 0.8899500000000001,-5.72 c7.29,-41.8 26.82,-60.36 26.82,-60.36 h14.92 l9.98,60.36 l12.4,74.99 l-8.69,28.34 l-20.08,65.44995 l19.19,20.84 z" fill="#d0cde1" id="svg_8" class=""/><path d="M372.8765833740234,415.8058799780273 l12.75489,14.88081 c4.73879,-0.9035099999999999 9.68742,-1.96527 14.78434,-3.15766 l-3.66344,-11.72315 l8.9575,10.45044 c53.9974,-13.28079 120.92677,-39.10138 120.92677,-39.10138 s-72.25715,5.29821 -126.20826,-6.48861 c-23.87075,-5.21509 -48.43073,6.61811 -58.22631,29.0024 c-5.69358,13.01063 -4.7994,24.28275 15.394,24.28275 a133.3748,133.3748 0 0 0 20.35271,-1.91438 z" fill="#453ce2" id="svg_9"/><path d="M663.6502633740234,660.3860499780274 v6.07 a13.34012,13.34012 0 0 1 -0.91,4.87 a13.68758,13.68758 0 0 1 -0.97,2 a13.43748,13.43748 0 0 1 -11.55,6.5600000000000005 h-446.55 a13.4374,13.4374 0 0 1 -11.55,-6.5600000000000005 a13.68249,13.68249 0 0 1 -0.97,-2 a13.34012,13.34012 0 0 1 -0.91,-4.87 v-6.07 a13.42641,13.42641 0 0 1 13.43,-13.43 h25.74 v-2.83 a0.55908,0.55908 0 0 1 0.56,-0.56 h13.43 a0.55908,0.55908 0 0 1 0.56,0.56 v2.83 h8.38995 v-2.83 a0.55908,0.55908 0 0 1 0.56,-0.56 h13.43 a0.55908,0.55908 0 0 1 0.56,0.56 v2.83 h8.4 v-2.83 a0.55908,0.55908 0 0 1 0.56,-0.56 h13.43 a0.55908,0.55908 0 0 1 0.56,0.56 v2.83 h8.39 v-2.83 a0.55908,0.55908 0 0 1 0.56,-0.56 h13.43 a0.55908,0.55908 0 0 1 0.56,0.56 v2.83 h8.39 v-2.83 a0.55908,0.55908 0 0 1 0.56,-0.56 h13.43 a0.55908,0.55908 0 0 1 0.56,0.56 v2.83 h8.4 v-2.83 a0.55908,0.55908 0 0 1 0.56,-0.56 h13.43 a0.55908,0.55908 0 0 1 0.56,0.56 v2.83 h8.39 v-2.83 a0.55908,0.55908 0 0 1 0.56,-0.56 h105.2 a0.55908,0.55908 0 0 1 0.56,0.56 v2.83 h8.4 v-2.83 a0.55908,0.55908 0 0 1 0.56,-0.56 h13.43005 a0.56556,0.56556 0 0 1 0.56,0.56 v2.83 h8.39 v-2.83 a0.55908,0.55908 0 0 1 0.56,-0.56 h13.43 a0.5590900000000001,0.5590900000000001 0 0 1 0.56005,0.56 v2.83 h8.39 v-2.83 a0.55908,0.55908 0 0 1 0.56,-0.56 h13.43 a0.55908,0.55908 0 0 1 0.56,0.56 v2.83 h8.4 v-2.83 a0.55908,0.55908 0 0 1 0.56,-0.56 h13.43 a0.557,0.557 0 0 1 0.55,0.56 v2.83 h8.4 v-2.83 a0.55908,0.55908 0 0 1 0.56,-0.56 h13.43 a0.55908,0.55908 0 0 1 0.56,0.56 v2.83 h8.39 v-2.83 a0.55908,0.55908 0 0 1 0.56,-0.56 h13.43 a0.55908,0.55908 0 0 1 0.56,0.56 v2.83 h39.17 A13.42642,13.42642 0 0 1 663.6502633740234,660.3860499780274 z" fill="#3f3d56" id="svg_10"/><rect x="60.500240325927734" y="671.3260498046875" width="732.99951171875" height="2" fill="#3f3d56" id="svg_11"/><path d="M627.6944933740234,404.75657997802733 H461.2515833740234 v-3.43053 H385.7799233740234 v3.43053 h-167.129 a11.258610000000001,11.258610000000001 0 0 0 -11.258610000000001,11.258610000000001 V643.9266899780273 a11.25864,11.25864 0 0 0 11.258610000000001,11.25865 H627.6944933740234 a11.25864,11.25864 0 0 0 11.258610000000001,-11.25865 V416.01518997802737 A11.2586,11.2586 0 0 0 627.6944933740234,404.75657997802733 z" fill="#3f3d56" id="svg_12"/><circle cx="423.500244140625" cy="484.3260498046875" r="25" fill="none" stroke="#d0cde1" stroke-miterlimit="10" stroke-width="2" id="svg_13"/><circle cx="415.500244140625" cy="493.3260498046875" r="25" fill="#d0cde1" id="svg_14"/><rect x="80.44606018066406" y="661.2225952148438" width="28" height="28" fill="#d0cde1" id="svg_15"/><path d="M91.45000337402342,639.2229899780274 v34 h34 v-34 zm32.52,32.52 h-31.05 v-31.04 h31.05 z" fill="#3f3d56" id="svg_16"/><rect x="728.446044921875" y="661.2225952148438" width="28" height="28" fill="#d0cde1" id="svg_17"/><path d="M739.4500033740235,639.2229899780274 v34 h34 v-34 zm32.52,32.52 h-31.05 v-31.04 h31.05 z" fill="#3f3d56" id="svg_18"/><path d="M150.59365337402346,599.7540399780273 c0.93308,31.95 -17.73513,43.65892 -41.1632,44.34312 q-0.8162900000000001,0.023830000000000004 -1.6252400000000002,0.029220000000000003 q-1.62969,0.01242 -3.22774,-0.05428000000000001 c-21.18834,-0.8796100000000001 -37.96015,-12.12685 -38.82791,-41.84025 c-0.8980000000000001,-30.74968 37.26893,-70.70292 40.1325,-73.65827 l0.005110000000000001,-0.0027600000000000007 c0.10878000000000002,-0.11262000000000003 0.16448000000000004,-0.16900000000000004 0.16448000000000004,-0.16900000000000004 S149.6606533740234,567.8066699780273 150.59365337402346,599.7540399780273 z" fill="#d0cde1" id="svg_34"/><path d="M107.74372337402343,639.2550999780274 l14.88232,-22.1315 l-14.85188,24.51243 l0.031000000000000007,2.4903500000000003 q-1.62969,0.01242 -3.22774,-0.05428000000000001 L105.31558337402345,612.0602899780273 l-0.020220000000000002,-0.24700000000000003 l0.027230000000000004,-0.04771000000000001 l0.07065,-3.02493 l-16.2979,-23.66265 l16.27867,21.39867 l0.05777000000000001,0.6393800000000001 l0.55752,-24.18618 l-14.077,-24.53275 l14.11708,20.28394 l-0.14735,-50.10752 l0.0003200000000000001,-0.16678000000000004 l0.004790000000000001,0.16400000000000003 l0.93446,39.49147 l12.8295,-16.04146 l-12.7875,19.44356 l0.28,21.634 l11.80578,-21.11394 l-11.76239,24.29451 l0.15587,12.02957 l17.16879,-29.41146 l-17.11659,33.60807 z" fill="#3f3d56" id="svg_35"/><path d="M798.5936533740235,599.7540399780273 c0.93308,31.95 -17.73513,43.65892 -41.1632,44.34312 q-0.81628,0.023830000000000004 -1.6252400000000002,0.029220000000000003 q-1.62969,0.01242 -3.22774,-0.05428000000000001 c-21.18834,-0.8796100000000001 -37.96015,-12.12685 -38.82791,-41.84025 c-0.8980000000000001,-30.74968 37.26893,-70.70292 40.1325,-73.65827 l0.005110000000000001,-0.0027600000000000007 c0.10878000000000002,-0.11262000000000003 0.16448000000000004,-0.16900000000000004 0.16448000000000004,-0.16900000000000004 S797.6606533740235,567.8066699780273 798.5936533740235,599.7540399780273 z" fill="#d0cde1" id="svg_36"/><path d="M755.7437233740235,639.2550999780274 l14.88232,-22.1315 l-14.85188,24.51243 l0.031000000000000007,2.4903500000000003 q-1.62969,0.01242 -3.22774,-0.05428000000000001 L753.3155833740234,612.0602899780273 l-0.020220000000000002,-0.24700000000000003 l0.027230000000000004,-0.04771000000000001 l0.07065,-3.02493 l-16.2979,-23.66265 l16.27867,21.39867 l0.05777000000000001,0.6393800000000001 l0.55752,-24.18618 l-14.077,-24.53275 l14.11708,20.28394 l-0.14735,-50.10752 l0.0003200000000000001,-0.16678000000000004 l0.004790000000000001,0.16400000000000003 l0.93446,39.49147 l12.8295,-16.04146 l-12.7875,19.44356 l0.28,21.634 l11.80578,-21.11394 l-11.76239,24.29451 l0.15587,12.02957 l17.16879,-29.41146 l-17.11659,33.60807 z" fill="#3f3d56" id="svg_37"/></g></svg>