<svg xmlns="http://www.w3.org/2000/svg" xmlns:xlink="http://www.w3.org/1999/xlink" id="visual" version="1.1" viewBox="0 496.92 900 104.08">
    <path d="M0 517L10.7 520.2C21.3 523.3 42.7 529.7 64.2 531.5C85.7 533.3 107.3 530.7 128.8 525.5C150.3 520.3 171.7 512.7 193 510.2C214.3 507.7 235.7 510.3 257 515.2C278.3 520 299.7 527 321.2 527.2C342.7 527.3 364.3 520.7 385.8 518.2C407.3 515.7 428.7 517.3 450 514.5C471.3 511.7 492.7 504.3 514.2 500.3C535.7 496.3 557.3 495.7 578.8 499.3C600.3 503 621.7 511 643 514.7C664.3 518.3 685.7 517.7 707 514.5C728.3 511.3 749.7 505.7 771.2 501.7C792.7 497.7 814.3 495.3 835.8 499.8C857.3 504.3 878.7 515.7 889.3 521.3L900 527L900 601L889.3 601C878.7 601 857.3 601 835.8 601C814.3 601 792.7 601 771.2 601C749.7 601 728.3 601 707 601C685.7 601 664.3 601 643 601C621.7 601 600.3 601 578.8 601C557.3 601 535.7 601 514.2 601C492.7 601 471.3 601 450 601C428.7 601 407.3 601 385.8 601C364.3 601 342.7 601 321.2 601C299.7 601 278.3 601 257 601C235.7 601 214.3 601 193 601C171.7 601 150.3 601 128.8 601C107.3 601 85.7 601 64.2 601C42.7 601 21.3 601 10.7 601L0 601Z" fill="#6366f1" />
    <path d="M0 549L10.7 543.7C21.3 538.3 42.7 527.7 64.2 522.3C85.7 517 107.3 517 128.8 521.8C150.3 526.7 171.7 536.3 193 537.2C214.3 538 235.7 530 257 525.2C278.3 520.3 299.7 518.7 321.2 519.8C342.7 521 364.3 525 385.8 525.3C407.3 525.7 428.7 522.3 450 523.5C471.3 524.7 492.7 530.3 514.2 529.7C535.7 529 557.3 522 578.8 521.5C600.3 521 621.7 527 643 532.7C664.3 538.3 685.7 543.7 707 541.7C728.3 539.7 749.7 530.3 771.2 524.2C792.7 518 814.3 515 835.8 516.2C857.3 517.3 878.7 522.7 889.3 525.3L900 528L900 601L889.3 601C878.7 601 857.3 601 835.8 601C814.3 601 792.7 601 771.2 601C749.7 601 728.3 601 707 601C685.7 601 664.3 601 643 601C621.7 601 600.3 601 578.8 601C557.3 601 535.7 601 514.2 601C492.7 601 471.3 601 450 601C428.7 601 407.3 601 385.8 601C364.3 601 342.7 601 321.2 601C299.7 601 278.3 601 257 601C235.7 601 214.3 601 193 601C171.7 601 150.3 601 128.8 601C107.3 601 85.7 601 64.2 601C42.7 601 21.3 601 10.7 601L0 601Z" fill="#645aec" />
    <path d="M0 552L10.7 551.3C21.3 550.7 42.7 549.3 64.2 546.2C85.7 543 107.3 538 128.8 540.3C150.3 542.7 171.7 552.3 193 555.5C214.3 558.7 235.7 555.3 257 555C278.3 554.7 299.7 557.3 321.2 555.5C342.7 553.7 364.3 547.3 385.8 547.8C407.3 548.3 428.7 555.7 450 557.3C471.3 559 492.7 555 514.2 550.3C535.7 545.7 557.3 540.3 578.8 537.2C600.3 534 621.7 533 643 534.8C664.3 536.7 685.7 541.3 707 543.2C728.3 545 749.7 544 771.2 541.8C792.7 539.7 814.3 536.3 835.8 537.2C857.3 538 878.7 543 889.3 545.5L900 548L900 601L889.3 601C878.7 601 857.3 601 835.8 601C814.3 601 792.7 601 771.2 601C749.7 601 728.3 601 707 601C685.7 601 664.3 601 643 601C621.7 601 600.3 601 578.8 601C557.3 601 535.7 601 514.2 601C492.7 601 471.3 601 450 601C428.7 601 407.3 601 385.8 601C364.3 601 342.7 601 321.2 601C299.7 601 278.3 601 257 601C235.7 601 214.3 601 193 601C171.7 601 150.3 601 128.8 601C107.3 601 85.7 601 64.2 601C42.7 601 21.3 601 10.7 601L0 601Z" fill="#664ce6" />
    <path d="M0 571L10.7 567.3C21.3 563.7 42.7 556.3 64.2 552.8C85.7 549.3 107.3 549.7 128.8 554.3C150.3 559 171.7 568 193 568.5C214.3 569 235.7 561 257 556.3C278.3 551.7 299.7 550.3 321.2 550.8C342.7 551.3 364.3 553.7 385.8 558.2C407.3 562.7 428.7 569.3 450 569.5C471.3 569.7 492.7 563.3 514.2 560.3C535.7 557.3 557.3 557.7 578.8 557.5C600.3 557.3 621.7 556.7 643 557.8C664.3 559 685.7 562 707 561.8C728.3 561.7 749.7 558.3 771.2 559.8C792.7 561.3 814.3 567.7 835.8 569.8C857.3 572 878.7 570 889.3 569L900 568L900 601L889.3 601C878.7 601 857.3 601 835.8 601C814.3 601 792.7 601 771.2 601C749.7 601 728.3 601 707 601C685.7 601 664.3 601 643 601C621.7 601 600.3 601 578.8 601C557.3 601 535.7 601 514.2 601C492.7 601 471.3 601 450 601C428.7 601 407.3 601 385.8 601C364.3 601 342.7 601 321.2 601C299.7 601 278.3 601 257 601C235.7 601 214.3 601 193 601C171.7 601 150.3 601 128.8 601C107.3 601 85.7 601 64.2 601C42.7 601 21.3 601 10.7 601L0 601Z" fill="#693cdf" />
</svg>