<svg width="279" height="244" viewBox="0 0 279 244" fill="none" xmlns="http://www.w3.org/2000/svg">
<path d="M229.973 217.743C249.047 203.683 266.691 185.671 274.604 162.732C281.144 143.774 278.528 124.88 274.106 105.945C271.704 95.6586 269.289 85.9542 265.075 76.2103C262.199 69.5618 258.814 63.2515 255.038 57.0753C250.135 49.053 244.735 40.9475 236.402 36.0915C225.142 29.529 211.85 33.8394 199.989 36.0282C188.689 38.1133 177.147 38.0307 166.24 34.1099C147.756 27.4659 133.808 12.7278 116.037 4.74038C94.7123 -4.84486 69.8631 1.59984 51.5015 14.9405C47.1867 18.0767 43.1445 21.708 39.6421 25.7327C37.7652 27.892 36.227 30.55 34.212 32.5531C32.6278 34.1288 30.3964 35.1265 28.6196 36.4786C25.1577 39.1148 22.0147 42.0885 19.1611 45.3729C7.06598 59.3019 1.67686 78.38 0.442168 96.455C-0.234509 106.384 0.194007 116.393 1.58889 126.242C2.29295 131.205 3.77298 136.12 4.35163 141.074C5.05228 147.055 3.77226 153.224 4.56894 159.321C6.58336 174.744 14.0068 188.615 24.3847 200.029C34.2132 210.834 46.2333 218.088 58.7981 225.209C70.1575 231.647 80.7992 237.587 93.6963 240.602C100.803 242.262 108.194 243.142 115.496 243.116C117.616 243.108 119.727 242.574 121.84 242.632C131.931 242.903 141.827 243.755 151.937 242.995C175.27 241.24 197.59 235.759 218.133 224.408C222.019 222.26 226.399 220.378 229.973 217.743Z" fill="url(#paint0_linear_81_9)"/>
<defs>
<linearGradient id="paint0_linear_81_9" x1="197.763" y1="235.871" x2="69.7194" y2="4.15565" gradientUnits="userSpaceOnUse">
<stop stop-color="#9233E9"/>
<stop offset="1" stop-color="#6366F1"/>
</linearGradient>
</defs>
</svg>
