<svg width="900" height="101" viewBox="0 0 900 101" fill="none" xmlns="http://www.w3.org/2000/svg">
<g clip-path="url(#clip0_1_6)">
<path d="M0 33L10.7 33.5C21.3 34 42.7 35 64.2 29C85.7 23 107.3 10 128.8 5.70001C150.3 1.30001 171.7 5.69999 193 13.8C214.3 22 235.7 34 257 34.7C278.3 35.3 299.7 24.7 321.2 16.2C342.7 7.70001 364.3 1.3 385.8 5C407.3 8.7 428.7 22.3 450 29.2C471.3 36 492.7 36 514.2 38C535.7 40 557.3 44 578.8 40C600.3 36 621.7 24 643 23.2C664.3 22.3 685.7 32.7 707 36C728.3 39.3 749.7 35.7 771.2 33C792.7 30.3 814.3 28.7 835.8 23.3C857.3 18 878.7 9 889.3 4.5L900 0V102H889.3C878.7 102 857.3 102 835.8 102C814.3 102 792.7 102 771.2 102C749.7 102 728.3 102 707 102C685.7 102 664.3 102 643 102C621.7 102 600.3 102 578.8 102C557.3 102 535.7 102 514.2 102C492.7 102 471.3 102 450 102C428.7 102 407.3 102 385.8 102C364.3 102 342.7 102 321.2 102C299.7 102 278.3 102 257 102C235.7 102 214.3 102 193 102C171.7 102 150.3 102 128.8 102C107.3 102 85.7 102 64.2 102C42.7 102 21.3 102 10.7 102H0V33Z" fill="#6366F1"/>
<path d="M0 60L10.7 55C21.3 50 42.7 40 64.2 37.8C85.7 35.7 107.3 41.3 128.8 40C150.3 38.7 171.7 30.3 193 26.3C214.3 22.3 235.7 22.7 257 23.8C278.3 25 299.7 27 321.2 30.7C342.7 34.3 364.3 39.7 385.8 41.3C407.3 43 428.7 41 450 39.3C471.3 37.7 492.7 36.3 514.2 38.3C535.7 40.3 557.3 45.7 578.8 43.8C600.3 42 621.7 33 643 29.5C664.3 26 685.7 28 707 26.8C728.3 25.7 749.7 21.3 771.2 18.8C792.7 16.3 814.3 15.7 835.8 19.5C857.3 23.3 878.7 31.7 889.3 35.8L900 40V102H889.3C878.7 102 857.3 102 835.8 102C814.3 102 792.7 102 771.2 102C749.7 102 728.3 102 707 102C685.7 102 664.3 102 643 102C621.7 102 600.3 102 578.8 102C557.3 102 535.7 102 514.2 102C492.7 102 471.3 102 450 102C428.7 102 407.3 102 385.8 102C364.3 102 342.7 102 321.2 102C299.7 102 278.3 102 257 102C235.7 102 214.3 102 193 102C171.7 102 150.3 102 128.8 102C107.3 102 85.7 102 64.2 102C42.7 102 21.3 102 10.7 102H0V60Z" fill="#645AEC"/>
<path d="M0 41L10.7 41.5C21.3 42 42.7 43 64.2 48.8C85.7 54.7 107.3 65.3 128.8 69C150.3 72.7 171.7 69.3 193 63.8C214.3 58.3 235.7 50.7 257 46.5C278.3 42.3 299.7 41.7 321.2 46.5C342.7 51.3 364.3 61.7 385.8 64.5C407.3 67.3 428.7 62.7 450 61.5C471.3 60.3 492.7 62.7 514.2 64C535.7 65.3 557.3 65.7 578.8 61.7C600.3 57.7 621.7 49.3 643 44.8C664.3 40.3 685.7 39.7 707 42.3C728.3 45 749.7 51 771.2 53.3C792.7 55.7 814.3 54.3 835.8 51.2C857.3 48 878.7 43 889.3 40.5L900 38V102H889.3C878.7 102 857.3 102 835.8 102C814.3 102 792.7 102 771.2 102C749.7 102 728.3 102 707 102C685.7 102 664.3 102 643 102C621.7 102 600.3 102 578.8 102C557.3 102 535.7 102 514.2 102C492.7 102 471.3 102 450 102C428.7 102 407.3 102 385.8 102C364.3 102 342.7 102 321.2 102C299.7 102 278.3 102 257 102C235.7 102 214.3 102 193 102C171.7 102 150.3 102 128.8 102C107.3 102 85.7 102 64.2 102C42.7 102 21.3 102 10.7 102H0V41Z" fill="#664CE6"/>
<path d="M0 72L10.7 71.2C21.3 70.3 42.7 68.7 64.2 72C85.7 75.3 107.3 83.7 128.8 86.7C150.3 89.7 171.7 87.3 193 83C214.3 78.7 235.7 72.3 257 71C278.3 69.7 299.7 73.3 321.2 77.3C342.7 81.3 364.3 85.7 385.8 84.7C407.3 83.7 428.7 77.3 450 74.3C471.3 71.3 492.7 71.7 514.2 73.8C535.7 76 557.3 80 578.8 82.8C600.3 85.7 621.7 87.3 643 87.8C664.3 88.3 685.7 87.7 707 83.7C728.3 79.7 749.7 72.3 771.2 73C792.7 73.7 814.3 82.3 835.8 86.2C857.3 90 878.7 89 889.3 88.5L900 88V102H889.3C878.7 102 857.3 102 835.8 102C814.3 102 792.7 102 771.2 102C749.7 102 728.3 102 707 102C685.7 102 664.3 102 643 102C621.7 102 600.3 102 578.8 102C557.3 102 535.7 102 514.2 102C492.7 102 471.3 102 450 102C428.7 102 407.3 102 385.8 102C364.3 102 342.7 102 321.2 102C299.7 102 278.3 102 257 102C235.7 102 214.3 102 193 102C171.7 102 150.3 102 128.8 102C107.3 102 85.7 102 64.2 102C42.7 102 21.3 102 10.7 102H0V72Z" fill="#693CDF"/>
</g>
<defs>
<clipPath id="clip0_1_6">
<rect width="900" height="101" fill="white"/>
</clipPath>
</defs>
</svg>
