<svg width="900" height="53" viewBox="0 0 900 53" fill="none" xmlns="http://www.w3.org/2000/svg">
<g clip-path="url(#clip0_1_2)">
<path d="M0 4L6.5 5.70001C13 7.30001 26 10.7 39 10C52 9.3 65 4.7 78 2.5C91 0.300002 104 0.700015 117.2 1.20001C130.3 1.70001 143.7 2.29999 156.8 5.79999C170 9.29999 183 15.7 196 18C209 20.3 222 18.7 235 16.8C248 15 261 13 274 10.8C287 8.69999 300 6.29999 313 6.79999C326 7.29999 339 10.7 352 13C365 15.3 378 16.7 391 16.3C404 16 417 14 430.2 11.3C443.3 8.69999 456.7 5.30001 469.8 7.20001C483 9.00001 496 16 509 20.3C522 24.7 535 26.3 548 27.3C561 28.3 574 28.7 587 28.2C600 27.7 613 26.3 626 24.7C639 23 652 21 665 20C678 19 691 19 704 16C717 13 730 7.00001 743.2 5.20001C756.3 3.30001 769.7 5.7 782.8 8.5C796 11.3 809 14.7 822 17.3C835 20 848 22 861 22C874 22 887 20 893.5 19L900 18V54H893.5C887 54 874 54 861 54C848 54 835 54 822 54C809 54 796 54 782.8 54C769.7 54 756.3 54 743.2 54C730 54 717 54 704 54C691 54 678 54 665 54C652 54 639 54 626 54C613 54 600 54 587 54C574 54 561 54 548 54C535 54 522 54 509 54C496 54 483 54 469.8 54C456.7 54 443.3 54 430.2 54C417 54 404 54 391 54C378 54 365 54 352 54C339 54 326 54 313 54C300 54 287 54 274 54C261 54 248 54 235 54C222 54 209 54 196 54C183 54 170 54 156.8 54C143.7 54 130.3 54 117.2 54C104 54 91 54 78 54C65 54 52 54 39 54C26 54 13 54 6.5 54H0V4Z" fill="#6366F1"/>
<path d="M0 20L6.5 21.8C13 23.7 26 27.3 39 28.3C52 29.3 65 27.7 78 28.3C91 29 104 32 117.2 31.5C130.3 31 143.7 27 156.8 26.3C170 25.7 183 28.3 196 28.8C209 29.3 222 27.7 235 24.8C248 22 261 18 274 16.5C287 15 300 16 313 19.5C326 23 339 29 352 31.2C365 33.3 378 31.7 391 31.5C404 31.3 417 32.7 430.2 31.3C443.3 30 456.7 26 469.8 25C483 24 496 26 509 27.7C522 29.3 535 30.7 548 31.5C561 32.3 574 32.7 587 31.3C600 30 613 27 626 27.5C639 28 652 32 665 32.5C678 33 691 30 704 27.5C717 25 730 23 743.2 23.7C756.3 24.3 769.7 27.7 782.8 29.3C796 31 809 31 822 31.8C835 32.7 848 34.3 861 34.2C874 34 887 32 893.5 31L900 30V54H893.5C887 54 874 54 861 54C848 54 835 54 822 54C809 54 796 54 782.8 54C769.7 54 756.3 54 743.2 54C730 54 717 54 704 54C691 54 678 54 665 54C652 54 639 54 626 54C613 54 600 54 587 54C574 54 561 54 548 54C535 54 522 54 509 54C496 54 483 54 469.8 54C456.7 54 443.3 54 430.2 54C417 54 404 54 391 54C378 54 365 54 352 54C339 54 326 54 313 54C300 54 287 54 274 54C261 54 248 54 235 54C222 54 209 54 196 54C183 54 170 54 156.8 54C143.7 54 130.3 54 117.2 54C104 54 91 54 78 54C65 54 52 54 39 54C26 54 13 54 6.5 54H0V20Z" fill="#6553E9"/>
<path d="M0 31L6.5 33.5C13 36 26 41 39 43C52 45 65 44 78 44C91 44 104 45 117.2 44.8C130.3 44.7 143.7 43.3 156.8 40.3C170 37.3 183 32.7 196 32.5C209 32.3 222 36.7 235 39.8C248 43 261 45 274 43.5C287 42 300 37 313 35.8C326 34.7 339 37.3 352 38.5C365 39.7 378 39.3 391 37.8C404 36.3 417 33.7 430.2 34.5C443.3 35.3 456.7 39.7 469.8 40.2C483 40.7 496 37.3 509 36C522 34.7 535 35.3 548 37C561 38.7 574 41.3 587 40.2C600 39 613 34 626 31.7C639 29.3 652 29.7 665 32.5C678 35.3 691 40.7 704 40.7C717 40.7 730 35.3 743.2 35.5C756.3 35.7 769.7 41.3 782.8 43.2C796 45 809 43 822 40.2C835 37.3 848 33.7 861 34.3C874 35 887 40 893.5 42.5L900 45V54H893.5C887 54 874 54 861 54C848 54 835 54 822 54C809 54 796 54 782.8 54C769.7 54 756.3 54 743.2 54C730 54 717 54 704 54C691 54 678 54 665 54C652 54 639 54 626 54C613 54 600 54 587 54C574 54 561 54 548 54C535 54 522 54 509 54C496 54 483 54 469.8 54C456.7 54 443.3 54 430.2 54C417 54 404 54 391 54C378 54 365 54 352 54C339 54 326 54 313 54C300 54 287 54 274 54C261 54 248 54 235 54C222 54 209 54 196 54C183 54 170 54 156.8 54C143.7 54 130.3 54 117.2 54C104 54 91 54 78 54C65 54 52 54 39 54C26 54 13 54 6.5 54H0V31Z" fill="#693CDF"/>
</g>
<defs>
<clipPath id="clip0_1_2">
<rect width="900" height="53" fill="white"/>
</clipPath>
</defs>
</svg>
